<svg xmlns="http://www.w3.org/2000/svg" width="148" height="159" fill="none"><circle cx="3" cy="3.61" r="3" fill="#FF5A3D"/><circle cx="15" cy="3.61" r="3" fill="#FF5A3D"/><circle cx="29" cy="3.61" r="3" fill="#FF5A3D"/><circle cx="41" cy="3.61" r="3" fill="#FF5A3D"/><circle cx="53" cy="3.61" r="3" fill="#FF5A3D"/><circle cx="67" cy="3.61" r="3" fill="#FF5A3D"/><circle cx="79" cy="3.61" r="3" fill="#FF5A3D"/><circle cx="91" cy="3.61" r="3" fill="#FF5A3D"/><circle cx="105" cy="3.61" r="3" fill="#FF5A3D"/><circle cx="119" cy="3.61" r="3" fill="#FF5A3D"/><circle cx="131" cy="3.61" r="3" fill="#FF5A3D"/><circle cx="145" cy="3.61" r="3" fill="#FF5A3D"/><circle cx="3" cy="3.61" r="3" fill="#FF5A3D"/><circle cx="15" cy="3.61" r="3" fill="#FF5A3D"/><circle cx="15" cy="31.61" r="3" fill="#FF5A3D"/><circle cx="15" cy="45.61" r="3" fill="#FF5A3D"/><circle cx="29" cy="3.61" r="3" fill="#FF5A3D"/><circle cx="41" cy="3.61" r="3" fill="#FF5A3D"/><circle cx="53" cy="3.61" r="3" fill="#FF5A3D"/><circle cx="67" cy="3.61" r="3" fill="#FF5A3D"/><circle cx="79" cy="3.61" r="3" fill="#FF5A3D"/><circle cx="91" cy="3.61" r="3" fill="#FF5A3D"/><circle cx="105" cy="3.61" r="3" fill="#FF5A3D"/><circle cx="119" cy="3.61" r="3" fill="#FF5A3D"/><circle cx="131" cy="3.61" r="3" fill="#FF5A3D"/><circle cx="145" cy="3.61" r="3" fill="#FF5A3D"/><circle cx="3" cy="17.61" r="3" fill="#FF5A3D"/><circle cx="15" cy="17.61" r="3" fill="#FF5A3D"/><circle cx="15" cy="57.61" r="3" fill="#FF5A3D"/><circle cx="15" cy="85.61" r="3" fill="#FF5A3D"/><circle cx="15" cy="99.61" r="3" fill="#FF5A3D"/><circle cx="15" cy="71.61" r="3" fill="#FF5A3D"/><circle cx="15" cy="113.61" r="3" fill="#FF5A3D"/><circle cx="15" cy="141.61" r="3" fill="#FF5A3D"/><circle cx="15" cy="155.61" r="3" fill="#FF5A3D"/><circle cx="15" cy="127.61" r="3" fill="#FF5A3D"/><circle cx="3" cy="31.61" r="3" fill="#FF5A3D"/><circle cx="3" cy="45.61" r="3" fill="#FF5A3D"/><circle cx="3" cy="57.61" r="3" fill="#FF5A3D"/><circle cx="3" cy="85.61" r="3" fill="#FF5A3D"/><circle cx="3" cy="99.61" r="3" fill="#FF5A3D"/><circle cx="3" cy="71.61" r="3" fill="#FF5A3D"/><circle cx="3" cy="113.61" r="3" fill="#FF5A3D"/><circle cx="3" cy="141.61" r="3" fill="#FF5A3D"/><circle cx="3" cy="155.61" r="3" fill="#FF5A3D"/><circle cx="3" cy="127.61" r="3" fill="#FF5A3D"/><circle cx="29" cy="31.61" r="3" fill="#FF5A3D"/><circle cx="29" cy="45.61" r="3" fill="#FF5A3D"/><circle cx="29" cy="57.61" r="3" fill="#FF5A3D"/><circle cx="29" cy="85.61" r="3" fill="#FF5A3D"/><circle cx="29" cy="99.61" r="3" fill="#FF5A3D"/><circle cx="29" cy="71.61" r="3" fill="#FF5A3D"/><circle cx="29" cy="113.61" r="3" fill="#FF5A3D"/><circle cx="29" cy="141.61" r="3" fill="#FF5A3D"/><circle cx="29" cy="155.61" r="3" fill="#FF5A3D"/><circle cx="29" cy="127.61" r="3" fill="#FF5A3D"/><circle cx="29" cy="17.61" r="3" fill="#FF5A3D"/><circle cx="41" cy="17.61" r="3" fill="#FF5A3D"/><circle cx="53" cy="17.61" r="3" fill="#FF5A3D"/><circle cx="67" cy="17.61" r="3" fill="#FF5A3D"/><circle cx="79" cy="17.61" r="3" fill="#FF5A3D"/><circle cx="91" cy="17.61" r="3" fill="#FF5A3D"/><circle cx="105" cy="17.61" r="3" fill="#FF5A3D"/><circle cx="119" cy="17.61" r="3" fill="#FF5A3D"/><circle cx="131" cy="17.61" r="3" fill="#FF5A3D"/><circle cx="145" cy="17.61" r="3" fill="#FF5A3D"/></svg>