<svg xmlns="http://www.w3.org/2000/svg" width="148" height="158" fill="none"><circle cx="145" cy="155" r="3" fill="#FF5A3D" transform="rotate(-180 145 155)"/><circle cx="133" cy="155" r="3" fill="#FF5A3D" transform="rotate(-180 133 155)"/><circle cx="119" cy="155" r="3" fill="#FF5A3D" transform="rotate(-180 119 155)"/><circle cx="107" cy="155" r="3" fill="#FF5A3D" transform="rotate(-180 107 155)"/><circle cx="95" cy="155" r="3" fill="#FF5A3D" transform="rotate(-180 95 155)"/><circle cx="81" cy="155" r="3" fill="#FF5A3D" transform="rotate(-180 81 155)"/><circle cx="69" cy="155" r="3" fill="#FF5A3D" transform="rotate(-180 69 155)"/><circle cx="57" cy="155" r="3" fill="#FF5A3D" transform="rotate(-180 57 155)"/><circle cx="43" cy="155" r="3" fill="#FF5A3D" transform="rotate(-180 43 155)"/><circle cx="29" cy="155" r="3" fill="#FF5A3D" transform="rotate(-180 29 155)"/><circle cx="17" cy="155" r="3" fill="#FF5A3D" transform="rotate(-180 17 155)"/><circle cx="3" cy="155" r="3" fill="#FF5A3D" transform="rotate(-180 3 155)"/><circle cx="145" cy="155" r="3" fill="#FF5A3D" transform="rotate(-180 145 155)"/><circle cx="133" cy="155" r="3" fill="#FF5A3D" transform="rotate(-180 133 155)"/><circle cx="133" cy="127" r="3" fill="#FF5A3D" transform="rotate(-180 133 127)"/><circle cx="133" cy="113" r="3" fill="#FF5A3D" transform="rotate(-180 133 113)"/><circle cx="119" cy="155" r="3" fill="#FF5A3D" transform="rotate(-180 119 155)"/><circle cx="107" cy="155" r="3" fill="#FF5A3D" transform="rotate(-180 107 155)"/><circle cx="95" cy="155" r="3" fill="#FF5A3D" transform="rotate(-180 95 155)"/><circle cx="81" cy="155" r="3" fill="#FF5A3D" transform="rotate(-180 81 155)"/><circle cx="69" cy="155" r="3" fill="#FF5A3D" transform="rotate(-180 69 155)"/><circle cx="57" cy="155" r="3" fill="#FF5A3D" transform="rotate(-180 57 155)"/><circle cx="43" cy="155" r="3" fill="#FF5A3D" transform="rotate(-180 43 155)"/><circle cx="29" cy="155" r="3" fill="#FF5A3D" transform="rotate(-180 29 155)"/><circle cx="17" cy="155" r="3" fill="#FF5A3D" transform="rotate(-180 17 155)"/><circle cx="3" cy="155" r="3" fill="#FF5A3D" transform="rotate(-180 3 155)"/><circle cx="145" cy="141" r="3" fill="#FF5A3D" transform="rotate(-180 145 141)"/><circle cx="133" cy="141" r="3" fill="#FF5A3D" transform="rotate(-180 133 141)"/><circle cx="133" cy="101" r="3" fill="#FF5A3D" transform="rotate(-180 133 101)"/><circle cx="133" cy="73" r="3" fill="#FF5A3D" transform="rotate(-180 133 73)"/><circle cx="133" cy="59" r="3" fill="#FF5A3D" transform="rotate(-180 133 59)"/><circle cx="133" cy="87" r="3" fill="#FF5A3D" transform="rotate(-180 133 87)"/><circle cx="133" cy="45" r="3" fill="#FF5A3D" transform="rotate(-180 133 45)"/><circle cx="133" cy="17" r="3" fill="#FF5A3D" transform="rotate(-180 133 17)"/><circle cx="133" cy="3" r="3" fill="#FF5A3D" transform="rotate(-180 133 3)"/><circle cx="133" cy="31" r="3" fill="#FF5A3D" transform="rotate(-180 133 31)"/><circle cx="145" cy="127" r="3" fill="#FF5A3D" transform="rotate(-180 145 127)"/><circle cx="145" cy="113" r="3" fill="#FF5A3D" transform="rotate(-180 145 113)"/><circle cx="145" cy="101" r="3" fill="#FF5A3D" transform="rotate(-180 145 101)"/><circle cx="145" cy="73" r="3" fill="#FF5A3D" transform="rotate(-180 145 73)"/><circle cx="145" cy="59" r="3" fill="#FF5A3D" transform="rotate(-180 145 59)"/><circle cx="145" cy="87" r="3" fill="#FF5A3D" transform="rotate(-180 145 87)"/><circle cx="145" cy="45" r="3" fill="#FF5A3D" transform="rotate(-180 145 45)"/><circle cx="145" cy="17" r="3" fill="#FF5A3D" transform="rotate(-180 145 17)"/><circle cx="145" cy="3" r="3" fill="#FF5A3D" transform="rotate(-180 145 3)"/><circle cx="145" cy="31" r="3" fill="#FF5A3D" transform="rotate(-180 145 31)"/><circle cx="119" cy="127" r="3" fill="#FF5A3D" transform="rotate(-180 119 127)"/><circle cx="119" cy="113" r="3" fill="#FF5A3D" transform="rotate(-180 119 113)"/><circle cx="119" cy="101" r="3" fill="#FF5A3D" transform="rotate(-180 119 101)"/><circle cx="119" cy="73" r="3" fill="#FF5A3D" transform="rotate(-180 119 73)"/><circle cx="119" cy="59" r="3" fill="#FF5A3D" transform="rotate(-180 119 59)"/><circle cx="119" cy="87" r="3" fill="#FF5A3D" transform="rotate(-180 119 87)"/><circle cx="119" cy="45" r="3" fill="#FF5A3D" transform="rotate(-180 119 45)"/><circle cx="119" cy="17" r="3" fill="#FF5A3D" transform="rotate(-180 119 17)"/><circle cx="119" cy="3" r="3" fill="#FF5A3D" transform="rotate(-180 119 3)"/><circle cx="119" cy="31" r="3" fill="#FF5A3D" transform="rotate(-180 119 31)"/><circle cx="119" cy="141" r="3" fill="#FF5A3D" transform="rotate(-180 119 141)"/><circle cx="107" cy="141" r="3" fill="#FF5A3D" transform="rotate(-180 107 141)"/><circle cx="95" cy="141" r="3" fill="#FF5A3D" transform="rotate(-180 95 141)"/><circle cx="81" cy="141" r="3" fill="#FF5A3D" transform="rotate(-180 81 141)"/><circle cx="69" cy="141" r="3" fill="#FF5A3D" transform="rotate(-180 69 141)"/><circle cx="57" cy="141" r="3" fill="#FF5A3D" transform="rotate(-180 57 141)"/><circle cx="43" cy="141" r="3" fill="#FF5A3D" transform="rotate(-180 43 141)"/><circle cx="29" cy="141" r="3" fill="#FF5A3D" transform="rotate(-180 29 141)"/><circle cx="17" cy="141" r="3" fill="#FF5A3D" transform="rotate(-180 17 141)"/><circle cx="3" cy="141" r="3" fill="#FF5A3D" transform="rotate(-180 3 141)"/></svg>