<svg width="16" height="16" viewBox="0 0 16 16" fill="none" xmlns="http://www.w3.org/2000/svg">
<path d="M6.8438 6.77374V14.5081C6.84274 14.6007 6.8602 14.6927 6.89516 14.7784C6.93012 14.8642 6.98187 14.9422 7.04737 15.0077C7.11288 15.0732 7.19081 15.1249 7.2766 15.1599C7.36238 15.1948 7.45429 15.2123 7.54692 15.2112C7.63955 15.2123 7.73146 15.1948 7.81724 15.1599C7.90303 15.1249 7.98096 15.0732 8.04647 15.0077C8.11197 14.9422 8.16372 14.8642 8.19868 14.7784C8.23364 14.6927 8.25111 14.6007 8.25005 14.5081" stroke="#5D737E" stroke-width="0.9375" stroke-miterlimit="10" stroke-linecap="round"/>
<path d="M8.25005 10.5237V14.5081C8.24899 14.6007 8.26645 14.6927 8.30141 14.7784C8.33637 14.8642 8.38812 14.9422 8.45362 15.0077C8.51913 15.0732 8.59706 15.1249 8.68285 15.1599C8.76863 15.1948 8.86054 15.2123 8.95317 15.2112C9.0458 15.2123 9.13771 15.1948 9.22349 15.1599C9.30928 15.1249 9.38721 15.0732 9.45272 15.0077C9.51822 14.9422 9.56997 14.8642 9.60493 14.7784C9.63989 14.6927 9.65736 14.6007 9.6563 14.5081V6.77374" stroke="#5D737E" stroke-width="0.9375" stroke-miterlimit="10" stroke-linecap="round"/>
<path d="M6.8438 6.30499V8.88312C6.8449 8.97576 6.82746 9.06768 6.79252 9.15349C6.75757 9.23929 6.70582 9.31724 6.64031 9.38275C6.5748 9.44827 6.49685 9.50002 6.41104 9.53496C6.32524 9.56991 6.23331 9.58734 6.14067 9.58624C6.04803 9.58734 5.95611 9.56991 5.8703 9.53496C5.7845 9.50002 5.70655 9.44827 5.64104 9.38275C5.57553 9.31724 5.52378 9.23929 5.48883 9.15349C5.45388 9.06768 5.43645 8.97576 5.43755 8.88312V6.30499C5.43755 5.93203 5.58571 5.57435 5.84943 5.31062C6.11315 5.0469 6.47084 4.89874 6.8438 4.89874H9.6563C10.0293 4.89874 10.3869 5.0469 10.6507 5.31062C10.9144 5.57435 11.0625 5.93203 11.0625 6.30499V8.88312C11.0636 8.97576 11.0462 9.06768 11.0113 9.15349C10.9763 9.23929 10.9246 9.31724 10.8591 9.38275C10.7935 9.44827 10.7156 9.50002 10.6298 9.53496C10.544 9.56991 10.4521 9.58734 10.3594 9.58624C10.2668 9.58734 10.1749 9.56991 10.0891 9.53496C10.0032 9.50002 9.9253 9.44827 9.85979 9.38275C9.79428 9.31724 9.74253 9.23929 9.70758 9.15349C9.67263 9.06768 9.6552 8.97576 9.6563 8.88312V6.30499" stroke="#5D737E" stroke-width="0.9375" stroke-miterlimit="10" stroke-linecap="round"/>
<path d="M8.25 3.49249C8.89721 3.49249 9.42188 2.96783 9.42188 2.32062C9.42188 1.67341 8.89721 1.14874 8.25 1.14874C7.60279 1.14874 7.07812 1.67341 7.07812 2.32062C7.07812 2.96783 7.60279 3.49249 8.25 3.49249Z" stroke="#5D737E" stroke-width="0.9375" stroke-miterlimit="10" stroke-linecap="round"/>
</svg>
