<svg width="16" height="16" viewBox="0 0 16 16" fill="none" xmlns="http://www.w3.org/2000/svg">
<path d="M2.27637 12.8675V9.58624C2.27784 9.08941 2.47585 8.61335 2.82716 8.26204C3.17848 7.91073 3.65454 7.71271 4.15137 7.71124H12.5889C13.0857 7.71271 13.5618 7.91073 13.9131 8.26204C14.2644 8.61335 14.4624 9.08941 14.4639 9.58624V12.8675M12.1201 7.71124H3.68262V4.66437C3.68354 4.35385 3.80731 4.05632 4.02688 3.83675C4.24644 3.61718 4.54398 3.49342 4.85449 3.49249H11.8857C12.1963 3.49342 12.4938 3.61718 12.7134 3.83675C12.9329 4.05632 13.0567 4.35385 13.0576 4.66437V7.71124H12.1201Z" stroke="#5D737E" stroke-width="0.9375" stroke-linecap="round" stroke-linejoin="round"/>
<path d="M2.27637 12.8675V12.6331C2.27691 12.4468 2.35116 12.2683 2.48291 12.1365C2.61465 12.0048 2.79318 11.9305 2.97949 11.93H13.7607C13.9471 11.9305 14.1256 12.0048 14.2573 12.1365C14.3891 12.2683 14.4633 12.4468 14.4639 12.6331V12.8675M4.15137 7.71124V7.24249C4.15206 6.99407 4.25106 6.75601 4.42672 6.58035C4.60239 6.40468 4.84044 6.30569 5.08887 6.30499H7.43262C7.68104 6.30569 7.9191 6.40468 8.09476 6.58035C8.27043 6.75601 8.36942 6.99407 8.37012 7.24249M8.37012 7.24249V7.71124M8.37012 7.24249C8.37081 6.99407 8.46981 6.75601 8.64547 6.58035C8.82114 6.40468 9.05919 6.30569 9.30762 6.30499H11.6514C11.8998 6.30569 12.1378 6.40468 12.3135 6.58035C12.4892 6.75601 12.5882 6.99407 12.5889 7.24249V7.71124" stroke="#5D737E" stroke-width="0.9375" stroke-linecap="round" stroke-linejoin="round"/>
</svg>
