<svg xmlns="http://www.w3.org/2000/svg" width="24" height="25" fill="none"><path fill="#FF5A3D" fill-rule="evenodd" d="M3 2.37a1 1 0 0 1 1 1v16a1 1 0 0 0 1 1h16a1 1 0 1 1 0 2H5a3 3 0 0 1-3-3v-16a1 1 0 0 1 1-1Z" clip-rule="evenodd"/><path fill="#FF5A3D" fill-rule="evenodd" d="M7 8.37a1 1 0 0 1 1 1v8a1 1 0 1 1-2 0v-8a1 1 0 0 1 1-1ZM11 14.37a1 1 0 0 1 1 1v2a1 1 0 1 1-2 0v-2a1 1 0 0 1 1-1ZM15 4.37a1 1 0 0 1 1 1v12a1 1 0 1 1-2 0v-12a1 1 0 0 1 1-1ZM19 10.37a1 1 0 0 1 1 1v6a1 1 0 1 1-2 0v-6a1 1 0 0 1 1-1Z" clip-rule="evenodd"/></svg>