<svg xmlns="http://www.w3.org/2000/svg" width="24" height="25" fill="none"><g clip-path="url(#a)"><path fill="#FF5A3D" d="M21.774 3.498A7.548 7.548 0 0 1 24 8.87c0 1.12-.241 2.202-.697 3.188a2.762 2.762 0 0 0-.534-.75l-7.336-7.336-.001-.001a.703.703 0 0 0-.995 0l-2.934 2.935c-.26.259-.604.402-.97.402a1.374 1.374 0 0 1-.97-2.342l1.467-1.468c2.962-2.962 7.782-2.963 10.745 0ZM3.197 14.645a1.374 1.374 0 0 1-.97-2.342L5.16 9.367c.26-.26.604-.402.97-.402a1.373 1.373 0 0 1 .97 2.342l-2.934 2.935c-.26.259-.604.402-.97.402ZM6.13 17.58a1.374 1.374 0 0 1-.97-2.342l2.935-2.936c.259-.259.604-.401.97-.401a1.374 1.374 0 0 1 .97 2.342l-2.934 2.935c-.26.259-.604.402-.97.402Zm2.935 2.934c-.366 0-.71-.142-.97-.402a1.363 1.363 0 0 1-.402-.97c0-.366.143-.71.402-.97l2.935-2.935c.259-.259.603-.402.97-.402a1.364 1.364 0 0 1 .97.402l.005.005c.53.536.528 1.402-.005 1.936l-2.934 2.934c-.26.26-.604.402-.97.402Zm7.242-1.372c0 .367-.143.711-.402.97l-2.935 2.935c-.259.26-.604.402-.97.402s-.711-.143-.97-.402a1.362 1.362 0 0 1-.402-.97c0-.366.143-.711.402-.97l2.934-2.935c.26-.259.604-.402.97-.402s.71.142.968.4l.003.002v.001c.26.26.402.603.402.97Zm3.527-4.9-2.935-2.934a.704.704 0 0 0-.994.995l2.935 2.934c.259.26.402.604.402.97a1.374 1.374 0 0 1-2.34.972c-.002 0-.002-.001-.003-.002l-.003-.003-2.926-2.926-.006-.005a2.761 2.761 0 0 0-2.127-.809A2.772 2.772 0 0 0 8.902 10.5 2.772 2.772 0 0 0 6.13 7.56c-.742 0-1.44.29-1.964.814L1.23 11.308c-.225.225-.402.48-.534.75A7.573 7.573 0 0 1 0 8.872c0-2.03.79-3.938 2.225-5.373a7.555 7.555 0 0 1 8.453-1.577 8.987 8.987 0 0 0-.643.583L8.569 3.97a2.782 2.782 0 0 0 0 3.93 2.76 2.76 0 0 0 1.964.813 2.76 2.76 0 0 0 1.965-.814l2.437-2.437 6.84 6.84a1.374 1.374 0 0 1 .001 1.94 1.374 1.374 0 0 1-1.941 0Z"/></g><defs><clipPath id="a"><path fill="#fff" d="M0 .37h24v24H0z"/></clipPath></defs></svg>