<?xml version="1.0" standalone="no"?>
<!DOCTYPE svg PUBLIC "-//W3C//DTD SVG 20010904//EN"
 "http://www.w3.org/TR/2001/REC-SVG-20010904/DTD/svg10.dtd">
<svg version="1.0" xmlns="http://www.w3.org/2000/svg"
 width="1056.000000pt" height="1056.000000pt" viewBox="0 0 1056.000000 1056.000000"
 preserveAspectRatio="xMidYMid meet">
<metadata>
Created by potrace 1.14, written by Peter Selinger 2001-2017
</metadata>
<g transform="translate(0.000000,1056.000000) scale(0.100000,-0.100000)"
fill="#000000" stroke="none">
<path d="M4178 9835 c-2 -1 -41 -6 -88 -9 -47 -3 -96 -8 -110 -11 -14 -3 -50
-7 -80 -10 -78 -7 -87 -9 -350 -61 -48 -10 -186 -46 -290 -76 -58 -16 -109
-31 -115 -31 -5 -1 -12 -5 -15 -9 -3 -4 -17 -9 -30 -12 -14 -2 -56 -16 -95
-31 -38 -15 -81 -30 -95 -35 -28 -9 -89 -34 -137 -56 -17 -8 -34 -14 -38 -14
-14 0 -420 -203 -444 -221 -13 -10 -27 -17 -31 -14 -4 3 -10 -2 -14 -10 -3 -8
-10 -15 -17 -15 -13 0 -132 -72 -137 -82 -2 -5 -8 -8 -13 -8 -8 0 -81 -46
-124 -77 -6 -5 -33 -23 -60 -42 -52 -36 -236 -172 -245 -181 -3 -3 -21 -19
-41 -35 -20 -17 -60 -50 -89 -75 -70 -58 -331 -319 -395 -394 -27 -33 -64 -75
-81 -95 -17 -20 -70 -88 -118 -151 -47 -63 -90 -120 -96 -127 -5 -7 -10 -15
-10 -18 0 -3 -18 -30 -40 -60 -22 -30 -40 -56 -40 -59 0 -3 -13 -25 -30 -49
-16 -25 -30 -49 -30 -55 0 -6 -4 -12 -8 -14 -38 -15 -375 -703 -397 -810 -2
-10 -10 -32 -19 -50 -16 -36 -27 -70 -24 -78 1 -3 -4 -15 -11 -28 -7 -13 -14
-31 -16 -40 -2 -9 -13 -47 -25 -85 -12 -37 -23 -73 -24 -80 -1 -6 -5 -18 -9
-24 -5 -7 -6 -13 -3 -13 2 0 0 -15 -5 -32 -17 -59 -52 -217 -64 -288 -4 -25
-9 -54 -12 -65 -2 -11 -6 -35 -8 -54 -2 -19 -7 -50 -10 -70 -12 -76 -21 -159
-33 -291 -9 -112 -8 -595 2 -690 4 -41 10 -95 12 -120 15 -149 19 -176 49
-345 20 -115 45 -223 82 -360 30 -108 34 -126 35 -142 1 -7 5 -13 9 -13 5 0 6
-7 3 -15 -4 -8 -1 -15 7 -15 7 0 10 -3 7 -6 -5 -5 38 -147 59 -194 3 -8 7 -17
8 -20 39 -113 216 -511 235 -530 3 -3 14 -23 25 -45 11 -22 43 -79 71 -126 28
-47 54 -94 57 -103 4 -9 11 -16 17 -16 5 0 10 -5 10 -12 0 -6 26 -50 57 -96
32 -47 63 -92 68 -101 6 -9 12 -18 15 -21 3 -3 32 -41 64 -85 33 -44 62 -82
65 -85 3 -3 32 -36 63 -75 84 -104 235 -263 404 -425 90 -86 160 -148 272
-241 50 -42 152 -119 157 -119 4 0 13 -7 21 -15 9 -8 68 -50 132 -92 64 -43
119 -81 120 -85 2 -5 7 -8 12 -8 5 0 41 -19 82 -43 200 -118 398 -215 623
-306 11 -5 31 -13 45 -19 44 -18 163 -60 250 -87 47 -15 92 -29 100 -32 18 -7
8 -4 167 -46 72 -19 134 -32 137 -29 3 3 6 0 6 -7 0 -7 4 -10 8 -7 4 2 37 -2
73 -9 158 -33 336 -61 444 -70 28 -3 66 -7 85 -9 166 -23 673 -24 860 -1 19 2
64 7 100 10 99 10 181 20 226 29 12 2 37 7 55 10 41 6 124 23 159 31 14 4 36
8 50 10 30 4 39 6 160 38 138 37 264 75 323 98 29 12 59 22 68 24 14 3 105 38
194 75 11 5 35 14 53 22 17 7 32 16 32 19 0 3 6 6 13 6 12 0 254 118 332 162
115 66 305 185 305 192 0 5 4 9 10 9 8 0 132 82 156 105 6 5 22 17 34 25 25
17 122 91 130 100 3 3 21 18 40 34 104 85 158 134 285 261 77 77 158 162 180
189 22 27 45 54 50 60 18 19 139 172 155 196 8 12 20 28 25 34 35 40 175 253
175 266 0 5 4 10 9 10 5 0 13 10 17 22 4 13 10 25 13 28 19 14 247 454 244
470 -1 3 3 11 9 17 12 15 92 14 -1039 17 l-852 2 -88 -83 c-228 -216 -376
-341 -528 -448 -38 -27 -71 -53 -73 -57 -2 -5 -8 -8 -13 -8 -4 0 -39 -20 -77
-44 -127 -83 -417 -226 -457 -226 -5 0 -22 -6 -36 -14 -21 -11 -78 -29 -86
-27 -2 0 -18 -6 -38 -15 -19 -8 -35 -12 -35 -9 0 3 -8 1 -17 -4 -10 -5 -31
-11 -48 -14 -16 -2 -50 -10 -75 -17 -25 -7 -54 -13 -65 -15 -11 -2 -36 -6 -55
-10 -149 -30 -740 -37 -890 -10 -14 2 -45 7 -70 10 -25 4 -99 20 -166 36 -66
16 -129 31 -140 34 -42 9 -258 85 -341 121 -113 48 -326 155 -335 169 -5 6 -8
6 -8 0 0 -6 -3 -6 -8 1 -4 6 -29 24 -57 39 -27 16 -52 32 -55 36 -3 3 -16 12
-29 19 -48 25 -229 164 -320 245 -52 46 -190 184 -241 241 -69 76 -240 296
-240 309 0 3 -9 15 -20 27 -11 12 -20 28 -20 35 0 7 -4 13 -10 13 -5 0 -10 6
-10 13 0 7 -9 23 -20 35 -12 12 -18 22 -14 22 4 0 0 8 -9 18 -22 25 -157 293
-195 387 -53 135 -91 245 -84 245 3 0 1 5 -6 12 -7 7 -12 22 -12 33 0 12 -3
25 -7 29 -4 4 -8 17 -10 29 -1 12 -11 55 -22 95 -11 41 -22 92 -26 115 -4 23
-8 51 -10 62 -2 11 -6 34 -9 50 -2 17 -7 44 -9 60 -30 171 -30 639 -1 810 3
17 7 41 9 55 23 176 70 361 147 580 22 63 51 139 64 168 13 29 24 55 24 58 0
8 119 245 153 304 40 69 178 276 209 312 13 15 37 43 53 64 95 116 256 281
360 367 33 27 62 53 65 56 4 6 106 79 212 152 15 11 32 19 38 19 5 0 10 4 10
8 0 5 16 14 35 22 19 8 35 17 35 20 0 8 247 127 300 145 3 1 17 7 31 13 85 35
300 100 389 118 14 3 41 9 60 14 19 5 53 11 75 15 22 3 47 8 55 10 33 10 158
24 263 30 48 2 92 7 97 10 6 3 10 1 10 -5 0 -6 4 -8 10 -5 5 3 72 6 147 5 76
-1 149 -1 163 0 14 1 30 2 35 1 6 0 64 -2 130 -5 66 -3 131 -8 145 -11 14 -3
43 -8 65 -10 188 -24 524 -110 665 -172 153 -67 356 -175 407 -218 7 -5 19
-16 27 -22 8 -7 18 -13 22 -13 5 0 81 -56 94 -70 3 -3 23 -18 45 -35 103 -76
385 -359 463 -463 14 -21 36 -46 48 -57 20 -21 28 -21 911 -20 490 0 894 3
898 6 8 9 -109 266 -128 280 -5 3 -8 9 -8 13 4 23 -157 307 -258 456 -96 142
-95 140 -181 250 -115 146 -343 383 -501 520 -34 30 -79 69 -98 86 -55 48
-282 218 -318 239 -18 11 -33 23 -33 27 0 4 -6 8 -13 8 -8 0 -22 9 -32 20 -10
11 -22 20 -27 20 -5 0 -29 14 -53 30 -24 17 -48 30 -54 30 -6 0 -11 4 -11 9 0
5 -8 11 -17 14 -10 4 -36 17 -58 31 -22 13 -69 39 -105 58 -36 18 -100 51
-142 74 -43 23 -78 41 -78 39 0 -2 -27 10 -61 26 -116 57 -428 180 -489 194
-8 2 -35 10 -60 19 -53 18 -266 77 -295 82 -11 1 -63 12 -115 23 -138 30 -287
56 -370 65 -115 12 -159 17 -190 22 -36 6 -746 14 -752 9z"/>
<path d="M4895 5979 c-22 -4 -43 -5 -47 -2 -5 2 -8 -1 -8 -8 0 -7 -3 -10 -6
-6 -10 9 -104 -22 -181 -59 -158 -78 -289 -270 -310 -454 -14 -133 -3 -453 19
-510 3 -8 14 -37 23 -65 22 -62 91 -169 136 -212 70 -66 210 -133 310 -149 19
-3 52 -8 74 -12 79 -12 261 -6 351 12 149 30 281 111 366 226 32 42 85 148 92
181 3 13 9 38 14 54 5 17 8 43 7 58 -1 15 1 29 4 31 9 6 5 311 -4 371 -4 28
-7 57 -7 65 0 28 -40 133 -73 189 -100 170 -262 263 -500 287 -82 9 -217 10
-260 3z m245 -409 c65 -33 82 -64 96 -175 6 -50 6 -53 1 -89 -3 -16 -1 -42 3
-58 5 -15 6 -28 2 -28 -4 0 -7 -37 -6 -82 0 -45 -3 -99 -9 -120 -22 -88 -135
-157 -222 -135 -100 26 -150 81 -159 181 -4 32 -8 62 -11 66 -3 5 -1 11 5 15
6 4 7 13 2 23 -10 20 -8 187 2 257 8 52 32 99 65 129 53 48 155 55 231 16z"/>
<path d="M6487 5984 c-1 -1 -24 -4 -52 -8 -27 -3 -61 -9 -75 -12 -14 -3 -36
-8 -50 -11 -40 -7 -116 -40 -140 -59 -8 -7 -19 -13 -23 -13 -18 -1 -85 -58
-130 -110 -47 -55 -121 -190 -120 -221 0 -8 -3 -19 -7 -25 -4 -5 -6 -20 -5
-32 1 -13 -1 -23 -4 -23 -3 0 -7 -12 -7 -27 -3 -66 -3 -361 1 -393 18 -177 96
-322 231 -428 34 -27 166 -92 186 -92 8 0 18 -3 22 -7 3 -4 14 -8 24 -9 9 -1
40 -6 67 -10 98 -14 288 -8 375 11 14 3 36 8 50 11 42 8 133 47 175 75 57 38
165 146 165 165 0 3 9 19 21 35 11 16 17 29 12 29 -4 0 -3 4 2 8 11 8 40 88
50 141 11 54 15 117 15 261 0 212 -12 292 -56 390 -49 108 -116 187 -207 243
-74 46 -115 64 -182 80 -88 21 -144 28 -253 31 -46 1 -84 1 -85 0z m179 -407
c39 -20 66 -53 90 -107 17 -39 19 -67 18 -220 -1 -207 -12 -265 -57 -308 -69
-66 -158 -79 -245 -36 -29 14 -52 30 -52 34 0 5 -7 15 -15 24 -8 8 -16 23 -18
33 -1 10 -5 23 -8 28 -6 11 -3 410 3 436 5 22 36 70 61 93 45 44 161 55 223
23z"/>
<path d="M9857 5984 c-1 -1 -36 -5 -77 -9 -41 -4 -83 -11 -92 -16 -10 -6 -18
-8 -18 -5 0 8 -101 -29 -158 -58 -68 -35 -122 -89 -156 -158 -33 -68 -37 -84
-41 -183 -4 -118 21 -192 89 -260 81 -81 159 -116 411 -185 150 -41 215 -69
248 -104 17 -19 19 -27 19 -66 0 -44 -3 -52 -33 -80 -30 -27 -36 -28 -118 -26
-101 2 -137 20 -165 83 -40 88 -12 79 -244 78 -114 0 -212 -3 -217 -7 -28 -17
-11 -135 33 -226 57 -119 206 -218 367 -247 142 -24 364 -24 465 0 14 3 32 8
40 10 8 2 15 4 15 5 0 1 7 3 16 5 46 9 152 71 201 117 83 79 110 140 114 258
6 195 -45 293 -195 378 -59 33 -232 97 -291 108 -107 20 -241 70 -266 100 -41
46 -14 126 46 140 124 30 199 1 231 -90 8 -21 23 -42 34 -46 11 -4 107 -8 212
-8 219 0 216 -1 201 77 -5 25 -12 57 -14 71 -11 54 -60 135 -117 191 -32 32
-65 59 -73 59 -8 0 -14 3 -14 8 0 18 -160 67 -255 78 -54 6 -194 11 -198 8z"/>
<path d="M2919 5944 c-1 -5 -2 -325 -3 -711 l-1 -703 25 -1 c106 -3 461 -1
465 2 2 3 7 99 9 215 2 115 5 212 5 216 1 7 163 3 191 -5 57 -16 83 -54 100
-144 6 -35 13 -74 16 -88 2 -14 6 -37 8 -52 11 -81 18 -128 21 -131 12 -13
453 -20 474 -7 6 3 9 11 5 16 -3 6 -7 25 -9 42 -1 18 -6 45 -10 62 -5 16 -9
41 -11 55 -1 14 -3 25 -4 25 -1 0 -3 11 -5 25 -23 215 -67 308 -166 355 -26
12 -44 26 -41 31 4 5 26 18 49 28 95 42 165 144 181 266 10 68 7 115 -12 220
-6 29 -56 107 -94 144 -49 50 -162 110 -222 120 -19 3 -48 9 -65 12 -47 10
-905 17 -906 8z m758 -363 c67 -35 78 -195 18 -255 -14 -14 -25 -22 -25 -19 0
3 -6 0 -13 -6 -11 -9 -155 -16 -229 -12 -16 1 -18 15 -18 157 l0 156 123 -4
c67 -3 132 -10 144 -17z"/>
<path d="M7445 5935 c-3 -8 -7 -22 -10 -30 -2 -8 -1 -15 3 -15 6 0 7 -174 1
-190 -1 -3 0 -9 1 -15 3 -12 2 -131 0 -142 -1 -5 -1 -12 0 -18 3 -12 2 -126 0
-140 -1 -5 -1 -14 0 -20 3 -12 2 -131 0 -142 -1 -5 -2 -12 -1 -17 7 -34 6 -78
-1 -82 -5 -3 -5 -10 -2 -16 10 -16 11 -168 1 -168 -4 0 -4 -7 1 -16 5 -9 6
-33 2 -54 -4 -21 -4 -43 -1 -49 4 -6 5 -32 4 -58 -5 -63 -5 -60 -1 -121 2 -28
-1 -52 -5 -52 -4 0 -4 -8 1 -17 5 -10 7 -24 5 -30 -3 -8 4 -13 19 -14 215 -6
418 -2 422 8 3 6 5 132 6 280 2 461 7 561 25 512 33 -92 87 -246 89 -254 2 -5
8 -23 14 -38 7 -16 12 -33 12 -38 0 -5 4 -17 9 -27 5 -9 24 -60 41 -112 18
-52 37 -107 43 -122 l12 -28 152 0 c152 0 160 2 168 37 5 21 72 218 85 248 23
55 39 105 34 105 -4 0 -2 6 3 13 6 6 27 64 48 127 21 63 42 119 45 123 7 9 9
-78 12 -545 2 -251 4 -288 18 -289 57 -3 422 0 426 3 4 4 6 575 4 1251 l0 167
-292 -2 -293 -3 -48 -150 c-27 -82 -51 -157 -54 -165 -3 -8 -7 -19 -9 -25 -1
-5 -21 -68 -44 -140 -41 -126 -56 -174 -82 -262 -7 -24 -15 -43 -19 -43 -4 0
-37 91 -73 203 -36 111 -73 223 -82 249 -8 26 -17 53 -18 60 -2 7 -6 20 -9 28
-3 8 -22 68 -43 133 l-37 117 -289 0 c-248 0 -289 -2 -293 -15z"/>
</g>
</svg>
