<svg xmlns="http://www.w3.org/2000/svg" width="186" height="15" fill="none"><path fill="#EEE" d="M5.34 14c-.267 0-.46-.06-.58-.18-.12-.12-.18-.3-.18-.54V2.36h-3.5c-.267 0-.453-.053-.56-.16-.093-.107-.14-.287-.14-.54v-.54C.38.867.427.687.52.58.627.46.813.4 1.08.4h9.56c.267 0 .453.06.56.18.107.107.16.287.16.54v.54c0 .253-.053.433-.16.54-.107.107-.293.16-.56.16h-3.5v10.92c0 .24-.06.42-.18.54-.107.12-.3.18-.58.18H5.34Zm6.229 0c-.267 0-.46-.06-.58-.18-.12-.12-.18-.3-.18-.54V4.94c0-.2.033-.34.1-.42.067-.08.207-.12.42-.12h1.14c.293 0 .447.133.46.4l.04.8c.907-1 2.207-1.5 3.9-1.5 1.08 0 1.947.293 2.6.88.667.573 1 1.44 1 2.6v5.7c0 .24-.06.42-.18.54-.107.12-.293.18-.56.18h-1.06c-.267 0-.46-.06-.58-.18-.12-.12-.18-.3-.18-.54V7.74c0-.653-.153-1.113-.46-1.38-.293-.28-.773-.42-1.44-.42-.707 0-1.327.193-1.86.58-.52.373-.78.86-.78 1.46v5.3c0 .24-.06.42-.18.54-.107.12-.3.18-.58.18h-1.04Zm11.894 0c-.267 0-.46-.06-.58-.18-.107-.12-.16-.3-.16-.54V1.14c0-.253.053-.44.16-.56.12-.12.313-.18.58-.18h5.78c1.387 0 2.433.333 3.14 1 .72.667 1.08 1.567 1.08 2.7 0 .64-.16 1.213-.48 1.72-.32.507-.767.88-1.34 1.12 1.48.467 2.22 1.507 2.22 3.12 0 .747-.173 1.42-.52 2.02-.333.587-.84 1.053-1.52 1.4s-1.52.52-2.52.52h-5.84Zm5.42-7.92c.653 0 1.153-.167 1.5-.5.36-.333.54-.8.54-1.4 0-.653-.167-1.12-.5-1.4-.32-.293-.84-.44-1.56-.44h-3.58v3.74h3.6Zm.3 5.98c.733 0 1.273-.187 1.62-.56.347-.387.52-.88.52-1.48 0-.693-.213-1.213-.64-1.56-.413-.36-.993-.54-1.74-.54h-3.66v4.14h3.9Zm11.885 2.24c-1.773 0-3.16-.433-4.16-1.3-.986-.88-1.48-2.133-1.48-3.76 0-1.013.227-1.907.68-2.68.454-.773 1.1-1.373 1.94-1.8.854-.44 1.847-.66 2.98-.66.84 0 1.554.08 2.14.24.587.16 1.134.42 1.64.78.12.08.18.167.18.26a.55.55 0 0 1-.1.28l-.54.94c-.08.133-.153.2-.22.2-.066 0-.16-.04-.28-.12a5.095 5.095 0 0 0-1.24-.56c-.4-.133-.88-.2-1.44-.2-1 0-1.786.3-2.36.9-.573.587-.86 1.393-.86 2.42 0 1.08.287 1.893.86 2.44.574.533 1.414.8 2.52.8.56 0 1.047-.067 1.46-.2a4.968 4.968 0 0 0 1.2-.58.535.535 0 0 1 .26-.1c.08 0 .16.067.24.2l.58.98c.054.067.08.14.08.22 0 .093-.066.187-.2.28a5.84 5.84 0 0 1-1.72.76c-.613.173-1.333.26-2.16.26Zm11.089 0c-1.733 0-3.073-.453-4.02-1.36-.933-.92-1.4-2.167-1.4-3.74 0-1.573.467-2.813 1.4-3.72.947-.92 2.287-1.38 4.02-1.38 1.733 0 3.073.46 4.02 1.38.947.907 1.42 2.147 1.42 3.72 0 1.573-.473 2.82-1.42 3.74-.947.907-2.287 1.36-4.02 1.36Zm0-1.88c.947 0 1.667-.273 2.16-.82.493-.547.74-1.347.74-2.4 0-1.04-.247-1.827-.74-2.36-.493-.547-1.213-.82-2.16-.82-.933 0-1.653.273-2.16.82-.493.533-.74 1.32-.74 2.36 0 1.04.247 1.84.74 2.4.507.547 1.227.82 2.16.82ZM60.319 14c-.267 0-.46-.06-.58-.18-.12-.12-.18-.3-.18-.54V4.94c0-.2.033-.34.1-.42.067-.08.207-.12.42-.12h1.14c.293 0 .447.133.46.4l.04.8c.907-1 2.207-1.5 3.9-1.5 1.08 0 1.947.293 2.6.88.667.573 1 1.44 1 2.6v5.7c0 .24-.06.42-.18.54-.107.12-.293.18-.56.18h-1.06c-.267 0-.46-.06-.58-.18-.12-.12-.18-.3-.18-.54V7.74c0-.653-.153-1.113-.46-1.38-.293-.28-.773-.42-1.44-.42-.707 0-1.327.193-1.86.58-.52.373-.78.86-.78 1.46v5.3c0 .24-.06.42-.18.54-.107.12-.3.18-.58.18h-1.04Zm12.734 0c-.267 0-.46-.06-.58-.18-.107-.12-.16-.3-.16-.54v-7h-.94c-.267 0-.453-.053-.56-.16-.093-.12-.14-.307-.14-.56V5.1c0-.253.047-.433.14-.54.107-.107.293-.16.56-.16h.94v-.58c0-1.133.36-2.033 1.08-2.7.72-.68 1.713-1.02 2.98-1.02 1.307 0 2.333.26 3.08.78.133.093.2.187.2.28 0 .08-.027.153-.08.22l-.52.88c-.08.12-.153.18-.22.18a.629.629 0 0 1-.22-.08 4.44 4.44 0 0 0-.84-.34 2.713 2.713 0 0 0-.9-.14c-1.36 0-2.04.653-2.04 1.96v.56h4.66c.267 0 .46.06.58.18.12.12.18.307.18.56v8.14c0 .24-.06.42-.18.54-.107.12-.3.18-.58.18h-1c-.267 0-.46-.06-.58-.18-.12-.12-.18-.3-.18-.54v-7h-2.9v7c0 .24-.06.42-.18.54-.107.12-.3.18-.58.18h-1.02Zm14.833.3c-3.787 0-5.68-1.707-5.68-5.12 0-1 .193-1.88.58-2.64a4.252 4.252 0 0 1 1.66-1.8c.733-.427 1.593-.64 2.58-.64 1.4 0 2.413.313 3.04.94v-3.9c0-.253.06-.44.18-.56.12-.12.313-.18.58-.18h1c.266 0 .46.06.58.18.12.12.18.307.18.56V13c-.507.373-1.187.687-2.04.94-.854.24-1.74.36-2.66.36Zm.06-1.82c.893 0 1.6-.16 2.12-.48V7.92c0-.653-.227-1.147-.68-1.48-.454-.333-1.04-.5-1.76-.5-.974 0-1.7.293-2.18.88-.48.587-.72 1.393-.72 2.42 0 1.147.266 1.973.8 2.48.533.507 1.34.76 2.42.76Zm12.184 1.82c-1.04 0-1.98-.173-2.82-.52a4.608 4.608 0 0 1-2.02-1.64c-.494-.747-.74-1.673-.74-2.78 0-1.72.46-3.027 1.38-3.92.92-.893 2.226-1.34 3.92-1.34 1.68 0 2.946.433 3.8 1.3.866.867 1.3 2.12 1.3 3.76 0 .467-.214.7-.64.7h-7.34c0 .88.306 1.56.92 2.04.613.467 1.466.7 2.56.7 1.053 0 2-.24 2.84-.72a.489.489 0 0 1 .22-.08c.093 0 .166.06.22.18l.48.86c.04.08.06.153.06.22 0 .093-.06.18-.18.26-.547.333-1.14.58-1.78.74-.627.16-1.354.24-2.18.24Zm2.5-5.92c0-.827-.234-1.473-.7-1.94-.454-.467-1.14-.7-2.06-.7-.934 0-1.654.24-2.16.72-.494.48-.74 1.12-.74 1.92h5.66Zm5.033 5.62c-.267 0-.46-.06-.58-.18-.12-.12-.18-.3-.18-.54V4.94c0-.2.033-.34.1-.42.066-.08.206-.12.42-.12h1.14c.293 0 .446.133.46.4l.04.8c.906-1 2.206-1.5 3.9-1.5 1.08 0 1.946.293 2.6.88.666.573 1 1.44 1 2.6v5.7c0 .24-.06.42-.18.54-.107.12-.294.18-.56.18h-1.06c-.267 0-.46-.06-.58-.18-.12-.12-.18-.3-.18-.54V7.74c0-.653-.154-1.113-.46-1.38-.294-.28-.774-.42-1.44-.42-.707 0-1.327.193-1.86.58-.52.373-.78.86-.78 1.46v5.3c0 .24-.06.42-.18.54-.107.12-.3.18-.58.18h-1.04Zm15.574.3c-1.134 0-1.987-.313-2.56-.94-.574-.627-.86-1.493-.86-2.6V6.28h-1.14c-.267 0-.447-.047-.54-.14-.08-.093-.12-.267-.12-.52v-.54c0-.253.04-.427.12-.52.093-.107.273-.16.54-.16h1.14V3.3c0-.28.046-.54.14-.78.106-.253.266-.567.48-.94.08-.16.153-.26.22-.3.08-.053.213-.08.4-.08h.66c.24 0 .406.06.5.18.106.107.16.273.16.5V4.4h2.36c.266 0 .44.053.52.16.093.093.14.267.14.52v.54c0 .253-.047.427-.14.52-.08.093-.254.14-.52.14h-2.36v4.4c0 .613.106 1.06.32 1.34.213.267.58.4 1.1.4.306 0 .566-.033.78-.1a3.38 3.38 0 0 0 .7-.38.343.343 0 0 1 .22-.08c.08 0 .16.06.24.18l.58.96c.053.067.08.14.08.22 0 .093-.067.187-.2.28-.827.533-1.814.8-2.96.8Zm5.48-.3c-.266 0-.46-.06-.58-.18-.12-.12-.18-.3-.18-.54V4.94c0-.2.034-.34.1-.42.067-.08.207-.12.42-.12h1.14c.147 0 .254.033.32.1.067.053.107.153.12.3l.06.72c.787-.947 1.82-1.42 3.1-1.42.587 0 1.034.1 1.34.3.08.053.127.113.14.18.027.053.027.12 0 .2l-.36 1.2c-.04.133-.113.2-.22.2l-.16-.04a2.611 2.611 0 0 0-1.1-.22c-.68 0-1.24.193-1.68.58-.44.373-.66.887-.66 1.54v5.24c0 .24-.06.42-.18.54-.106.12-.3.18-.58.18h-1.04Zm12.581.3c-1.734 0-3.074-.453-4.02-1.36-.934-.92-1.4-2.167-1.4-3.74 0-1.573.466-2.813 1.4-3.72.946-.92 2.286-1.38 4.02-1.38 1.733 0 3.073.46 4.02 1.38.946.907 1.42 2.147 1.42 3.72 0 1.573-.474 2.82-1.42 3.74-.947.907-2.287 1.36-4.02 1.36Zm0-1.88c.946 0 1.666-.273 2.16-.82.493-.547.74-1.347.74-2.4 0-1.04-.247-1.827-.74-2.36-.494-.547-1.214-.82-2.16-.82-.934 0-1.654.273-2.16.82-.494.533-.74 1.32-.74 2.36 0 1.04.246 1.84.74 2.4.506.547 1.226.82 2.16.82Zm11.914 1.88c-1.734 0-3.074-.453-4.02-1.36-.934-.92-1.4-2.167-1.4-3.74 0-1.573.466-2.813 1.4-3.72.946-.92 2.286-1.38 4.02-1.38 1.733 0 3.073.46 4.02 1.38.946.907 1.42 2.147 1.42 3.72 0 1.573-.474 2.82-1.42 3.74-.947.907-2.287 1.36-4.02 1.36Zm0-1.88c.946 0 1.666-.273 2.16-.82.493-.547.74-1.347.74-2.4 0-1.04-.247-1.827-.74-2.36-.494-.547-1.214-.82-2.16-.82-.934 0-1.654.273-2.16.82-.494.533-.74 1.32-.74 2.36 0 1.04.246 1.84.74 2.4.506.547 1.226.82 2.16.82Zm8.162 1.58c-.267 0-.46-.06-.58-.18-.12-.12-.18-.3-.18-.54V4.94c0-.2.033-.34.1-.42.066-.08.206-.12.42-.12h1.06c.146 0 .253.033.32.1.066.053.106.153.12.3l.06.84a4.23 4.23 0 0 1 1.32-1.14c.506-.267 1.106-.4 1.8-.4.586 0 1.093.133 1.52.4.44.253.76.633.96 1.14.733-1.027 1.793-1.54 3.18-1.54.946 0 1.693.287 2.24.86.56.573.84 1.427.84 2.56v5.76c0 .24-.06.42-.18.54-.107.12-.3.18-.58.18h-.88c-.267 0-.46-.06-.58-.18-.12-.12-.18-.3-.18-.54V7.66c0-.613-.134-1.053-.4-1.32-.254-.267-.64-.4-1.16-.4-.547 0-.994.18-1.34.54-.334.36-.5.847-.5 1.46v5.34c0 .24-.06.42-.18.54-.12.12-.314.18-.58.18h-.82c-.267 0-.46-.06-.58-.18-.12-.12-.18-.3-.18-.54V7.56c0-.56-.12-.967-.36-1.22-.227-.267-.594-.4-1.1-.4-.574 0-1.04.193-1.4.58-.36.373-.54.867-.54 1.48v5.28c0 .24-.06.42-.18.54-.107.12-.3.18-.58.18h-.88Zm19.591.3c-.8 0-1.58-.087-2.34-.26-.76-.16-1.413-.407-1.96-.74-.173-.093-.26-.193-.26-.3 0-.08.027-.153.08-.22l.56-.98c.067-.12.133-.18.2-.18s.153.033.26.1c.4.24.893.44 1.48.6.587.16 1.127.24 1.62.24.76 0 1.3-.073 1.62-.22.333-.16.5-.44.5-.84 0-.227-.067-.407-.2-.54-.12-.147-.307-.273-.56-.38a16.54 16.54 0 0 0-1.26-.44l-.66-.22c-.76-.253-1.367-.5-1.82-.74-.453-.24-.807-.54-1.06-.9-.24-.373-.36-.84-.36-1.4 0-.907.38-1.593 1.14-2.06.773-.48 1.773-.72 3-.72 1.493 0 2.78.32 3.86.96.173.093.26.193.26.3a.532.532 0 0 1-.1.26l-.54.86c-.08.12-.147.18-.2.18-.053 0-.133-.033-.24-.1a4.37 4.37 0 0 0-1.26-.5c-.48-.133-.967-.2-1.46-.2-.667 0-1.16.073-1.48.22-.307.133-.46.4-.46.8 0 .347.18.62.54.82.373.2 1.013.44 1.92.72l.66.2c1.04.333 1.767.727 2.18 1.18.427.453.64 1.02.64 1.7 0 .827-.367 1.5-1.1 2.02-.72.52-1.787.78-3.2.78Z"/></svg>