<svg width="66" height="57" viewBox="0 0 66 57" fill="none" xmlns="http://www.w3.org/2000/svg">
<path fill-rule="evenodd" clip-rule="evenodd" d="M25.2598 0.105437C20.4706 0.580208 15.6181 2.4564 11.4735 5.43591C7.34854 8.40127 4.23474 12.3969 2.10303 17.4601C-1.91956 27.0145 -0.066843 38.5221 6.76476 46.4149C7.53363 47.3031 9.16897 48.9249 10.0782 49.7007C15.8415 54.6182 23.524 57.0228 31.3478 56.3579C37.4746 55.8374 42.9551 53.4712 47.5524 49.3618C49.922 47.2438 52.0338 44.4045 53.4928 41.3749C53.758 40.8242 53.9749 40.3526 53.9749 40.3267C53.9749 40.3009 51.308 40.2798 48.0484 40.2798H42.1217L41.0905 41.2557C37.7719 44.3961 34.9084 45.9343 31.31 46.5095C30.1426 46.696 26.9772 46.6974 25.8251 46.5117C21.7354 45.8529 17.9892 43.8765 15.2453 40.9301C10.4527 35.7839 8.93644 28.584 11.2305 21.8659C12.2574 18.8586 13.8118 16.3959 16.003 14.3047C18.608 11.8185 21.6364 10.4169 25.6533 9.83831C26.0909 9.77528 27.0825 9.74252 28.4439 9.74605C30.2216 9.75065 30.7251 9.77761 31.6251 9.91641C35.2048 10.4684 37.6154 11.5851 40.2037 13.8905C40.8467 14.4633 42.181 15.905 42.5346 16.4091L42.6642 16.594L48.2804 16.6081C51.3692 16.6158 53.9141 16.5937 53.9356 16.5589C53.9838 16.481 52.8713 14.2315 52.2769 13.2049C51.0342 11.0587 49.6166 9.29493 47.7525 7.57524C45.7215 5.70169 43.7219 4.30826 41.3414 3.1077C38.0031 1.42401 34.6513 0.461138 30.8608 0.0970018C29.4782 -0.0357744 26.6415 -0.0315568 25.2598 0.105437ZM30.5558 24.1415C28.7882 24.3855 27.6613 25.3608 27.2243 27.0248C27.0404 27.7248 27.0402 29.8052 27.224 30.4892C27.5478 31.6949 28.1337 32.457 29.1041 32.9339C30.4484 33.5947 32.7087 33.5738 33.9961 32.8886C34.8974 32.4089 35.5633 31.486 35.8088 30.3762C35.9577 29.7029 35.9359 27.6517 35.7729 26.9949C35.3946 25.471 34.3421 24.5107 32.716 24.2059C32.135 24.097 31.1013 24.0661 30.5558 24.1415ZM40.2101 24.1348C40.1271 24.151 39.8726 24.2011 39.6444 24.2459C38.2256 24.5247 37.1621 25.5534 36.8025 26.9949C36.6148 27.7475 36.6182 29.7989 36.8085 30.5268C37.178 31.9405 38.085 32.8569 39.4969 33.2431C40.6193 33.5502 42.4375 33.4227 43.3866 32.9704C44.3702 32.5016 45.1048 31.5482 45.3414 30.4332C45.4846 29.7585 45.4855 27.7597 45.3429 27.0878C45.0131 25.534 43.9313 24.511 42.2948 24.2054C41.7228 24.0985 40.5895 24.0601 40.2101 24.1348ZM60.7439 24.2067C60.0595 24.3303 59.3215 24.6452 58.9469 24.9737C58.5714 25.3029 58.2514 25.9712 58.2126 26.5073C58.0884 28.2217 58.8141 28.942 61.2684 29.5409C62.1887 29.7654 62.7661 30.0018 62.9159 30.2153C63.0767 30.4447 63.0559 30.911 62.8769 31.0898C62.678 31.2884 62.4313 31.3418 61.8927 31.3029C61.374 31.2654 61.1235 31.0854 60.9806 30.6476C60.9319 30.4983 60.8546 30.3513 60.8087 30.3209C60.6896 30.2418 58.2575 30.2522 58.1308 30.3323C57.9708 30.4335 58.0702 31.1397 58.3181 31.6629C58.8393 32.763 59.9247 33.3141 61.7436 33.402C63.8059 33.5016 65.2459 32.8999 65.8045 31.7053C65.9745 31.3418 66.0029 31.1815 65.9998 30.6022C65.9912 29.0144 65.2152 28.3447 62.6377 27.7004C61.5789 27.4357 61.243 27.2728 61.1718 26.9895C61.0473 26.4942 61.3752 26.1964 62.0453 26.1964C62.6719 26.1964 62.8821 26.3635 63.0635 27.006C63.1109 27.1736 63.1258 27.1754 64.4639 27.1754H65.8165V26.8821C65.8165 26.7208 65.7479 26.3668 65.6639 26.0955C65.4653 25.4536 64.9414 24.8635 64.2833 24.5408C63.4064 24.1108 62.0068 23.9787 60.7439 24.2067ZM18.224 28.757V33.2004H19.7684H21.313L21.3335 31.826L21.3541 30.4515L21.9726 30.4593C22.9887 30.472 23.1054 30.6186 23.31 32.1406C23.3792 32.6553 23.4531 33.1044 23.4743 33.1385C23.4953 33.1726 24.193 33.2004 25.0247 33.2004C26.4346 33.2004 26.5332 33.1916 26.4841 33.0686C26.4043 32.8689 26.2416 31.9614 26.1541 31.2284C26.0411 30.2803 25.6972 29.7064 25.1168 29.4968C24.9763 29.446 24.8614 29.3859 24.8616 29.3632C24.8618 29.3404 25.0093 29.2613 25.1894 29.1873C25.629 29.0069 25.9766 28.6548 26.2056 28.158C26.4429 27.6431 26.4696 26.6848 26.2638 26.0668C26.0918 25.5502 25.5928 25.0031 25.0526 24.7391C24.2943 24.3683 23.7548 24.3135 20.8572 24.3135H18.224V28.757ZM46.508 28.757V33.2004H47.9023H49.2967L49.3165 30.5457C49.3314 28.56 49.357 27.9383 49.4181 28.0792C49.463 28.1827 49.7982 29.1232 50.1629 30.1691L50.8261 32.0707H51.787H52.7479L53.4934 29.9432L54.2389 27.8156L54.2588 30.508L54.2785 33.2004H55.673H57.0673V28.757V24.3135H55.2366H53.4059L52.6345 26.7138C52.2103 28.0338 51.8631 29.1522 51.8631 29.1991C51.8631 29.4818 51.7106 29.1559 51.435 28.2844C51.2619 27.7366 50.9058 26.6191 50.6438 25.801L50.1675 24.3135H48.3378H46.508V28.757ZM22.9688 26.607C23.2579 26.7563 23.3791 27.0846 23.336 27.6027C23.3061 27.9637 23.2639 28.0619 23.0615 28.2425C22.8329 28.4465 22.7896 28.4557 22.0694 28.4557H21.3164V27.4767V26.4976H22.0367C22.519 26.4976 22.8269 26.5338 22.9688 26.607ZM32.1005 26.6671C32.6696 26.9574 32.7431 27.1964 32.7431 28.757C32.7431 29.9396 32.7272 30.1059 32.5879 30.3762C32.4065 30.7283 31.9163 31.0164 31.4986 31.0164C31.0809 31.0164 30.5907 30.7283 30.4093 30.3762C30.2764 30.1183 30.2506 29.9076 30.2297 28.9112C30.2136 28.1427 30.2371 27.6341 30.2989 27.4137C30.5225 26.6165 31.3385 26.2783 32.1005 26.6671ZM41.6651 26.6476C41.9324 26.7687 42.022 26.8667 42.1793 27.2098C42.3622 27.6088 42.3689 27.6745 42.3459 28.8502C42.325 29.9171 42.3017 30.1138 42.1645 30.3762C41.726 31.2147 40.4204 31.2224 39.9638 30.3891C39.8533 30.1875 39.833 29.9393 39.833 28.7947C39.833 27.5894 39.8497 27.4057 39.9838 27.1385C40.2752 26.5577 40.9999 26.3462 41.6651 26.6476Z" fill="white"/>
</svg>
