<svg xmlns="http://www.w3.org/2000/svg" width="218" height="133" fill="none"><path fill="#FFECE8" d="M2.278 116.409C.965 117.496 0 117.643 0 116.757c0-.846 1.025-1.93 2.278-2.409 1.252-.48 2.277-.636 2.277-.348 0 .288-1.025 1.373-2.277 2.409Zm13.11-16.025c-1.058.652-2.334.777-2.835.277-1.359-1.356.64-2.833 2.842-2.101 1.543.513 1.542.87-.006 1.824Zm7.834-30.258c-2.164.822-2.338.648-.85-.848 1.03-1.035 2.256-1.5 2.723-1.034.468.467-.375 1.313-1.873 1.882Zm10.564-16.021c-3.872 1.652-3.961 1.615-1.228-.514 1.621-1.263 3.5-2.296 4.176-2.296 2.308 0 1.23 1.027-2.948 2.81ZM41 114.895c-.835 0-1.518-.3-1.518-.668 0-.367.683-1.088 1.518-1.603.835-.515 1.519-.214 1.519.668s-.684 1.603-1.519 1.603Zm-.38-25.178c-4.527 2.847-10.252 4.494-10.238 2.945.011-1.16 10.984-8.053 12.817-8.053 2.105 0 .506 3.168-2.578 5.108Zm22.084-19.433c-3.275 1.433-3.185 1.402-8.417 2.876-2.297.648-4.176 1.73-4.176 2.407 0 .676-2.22 1.7-4.935 2.276-2.714.575-6.131 2.097-7.593 3.383-1.79 1.576-2.657 1.742-2.657.511 0-1.004 2.22-2.823 4.935-4.043 2.714-1.219 5.96-2.799 7.213-3.51 3.506-1.99 17.104-6.337 17.766-5.678.323.322-.639 1.122-2.136 1.778Zm.822 61.796c-5.026 1.342-7.656 1.207-6.695-.344 1.216-1.963 6.336-3.009 8.425-1.722 1.195.737.603 1.443-1.73 2.066Zm5.186-64.248c-1.69-.076-1.943-.405-.696-.904 1.507-.603 1.552-1.278.194-2.91-1.393-1.674-1.246-2.124.696-2.124 1.451 0 2.464 1.245 2.464 3.029 0 1.92-.973 2.985-2.658 2.909Zm8.099-1.514c-1.6.065-2.498-.293-1.993-.796.504-.503 1.814-.557 2.91-.12 1.212.484.852.843-.917.916ZM87.313 1.026c-2.506.031-3.715-.283-2.686-.698 1.028-.414 3.078-.44 4.555-.056 1.477.384.636.724-1.87.754Zm-37.246 44.21c-.76 0-.989 1.02-.51 2.264.479 1.244 1.493 1.879 2.255 1.41 1.592-.982.314-3.673-1.745-3.673Zm8.518 6.058c-.35 0-1.887-.473-3.416-1.05-2.606-.985-2.62-.89-.233 1.513 2.895 2.914 4.284 3.255 4.284 1.051 0-.833-.286-1.514-.635-1.514Zm19.996 35.68c-2.715.6-6.302 1.166-7.972 1.256-4.76.258-3.554 3.143 1.518 3.635 2.68.26 5.953-.674 7.952-2.271 4.506-3.6 4.33-3.909-1.498-2.62Zm64.156 24.893a1.52 1.52 0 0 0-1.519 1.514 1.52 1.52 0 0 0 1.519 1.514 1.52 1.52 0 0 0 1.518-1.514 1.52 1.52 0 0 0-1.518-1.514Zm43.276-64.15c-1.252.48-2.256 1.992-2.229 3.36.041 2.112.385 2.044 2.278-.451 2.786-3.674 2.781-3.992-.049-2.909Zm-2.657 38.429c-.626-.012-1.139.658-1.139 1.491 0 .833 1.538 1.504 3.417 1.491 2.762-.019 2.981-.304 1.139-1.49-1.253-.808-2.791-1.48-3.417-1.492Zm20.867-15.166c-1.608 0-5.204-4.116-4.489-5.138.368-.525-.519.1-1.97 1.389-2.196 1.95-2.283 2.564-.52 3.651 1.211.747 1.704 2.387 1.149 3.827-.533 1.386-1.637 2.109-2.454 1.605-2.254-1.389-3.578 6.075-1.699 9.576 1.082 2.015 1.13 3.4.141 4.01-.841.517.255 2.446 2.468 4.344 3.005 2.578 3.719 4.231 2.916 6.754-1.039 3.267-1.16 3.282-5.539.703-2.462-1.451-4.143-3.505-3.735-4.565.408-1.06.222-1.927-.413-1.927-.636 0-3.727 4.383-6.869 9.74-4.399 7.499-6.393 9.61-8.667 9.173-1.625-.312-2.954.075-2.954.86s-.696 1.427-1.547 1.427c-.893 0-1.144-1.602-.595-3.785.967-3.844-1.964-5.658-3.059-1.893-.303 1.041-1.238 4.278-2.077 7.193l-1.527 5.3.091-6.301c.108-7.559-3.67-12.546-7.256-9.578-1.22 1.01-1.882 2.379-1.471 3.042.411.663.289 2.398-.271 3.854-.892 2.318-1.479 2.098-4.694-1.756l-3.674-4.404.629 4.921c.623 4.873-.399 5.744-5.943 5.061-.981-.121-2.283.585-2.892 1.569-.636 1.026-.459 1.388.416.849 1.72-1.06 6.051 6.004 4.58 7.471-1.64 1.636-5.658-.739-6.896-4.078-1.071-2.886-1.465-2.59-3.99 2.995-3.215 7.108-5.788 7.674-12.077 2.655-4.89-3.901-4.304-7.057 1.311-7.057 1.949 0 3.937-1.022 4.418-2.272.513-1.334.02-2.271-1.195-2.271-1.139 0-4.254-2.035-6.924-4.522-2.669-2.486-7.695-5.279-11.169-6.205-3.474-.926-7.17-2.382-8.214-3.235-1.044-.854-1.898-1.045-1.898-.424 0 .62-1.136.193-2.525-.95-1.956-1.611-2.668-1.655-3.16-.198-.444 1.316-1.45 1.445-3.35.432-1.492-.797-3.062-1.102-3.487-.679-.424.424-2.735 1.122-5.134 1.552-2.4.43-5.046 1.462-5.88 2.295-1.013 1.008-.55 1.145 1.387.409 2.029-.771 2.575-.569 1.808.667-.603.975-2.594 1.785-4.424 1.802-1.83.016-8.978 2.017-15.885 4.446-11.9 4.186-16.435 4.202-6.318.023 3.896-1.609 4.3-2.19 2.3-3.307-1.819-1.015-2.052-2.052-.93-4.142 1.768-3.295-1.613-6.989-5.155-5.633-1.21.463-2.458.066-2.775-.881-.868-2.598 2.382-8.682 4.645-8.696 1.094-.006 1.566.67 1.05 1.503-.517.832.349 1.514 1.923 1.514s4.343 1.572 6.153 3.493c2.665 2.829 2.932 3.896 1.404 5.606-1.586 1.774-1.489 1.813.605.243 1.372-1.028 2.863-3.278 3.314-4.999.451-1.72.452-2.761.003-2.313-.45.45-1.6.176-2.554-.607a445.54 445.54 0 0 0-5.533-4.402l-3.796-2.978 3.923-.05c2.452-.032 3.922-.902 3.922-2.322 0-2.65-1.282-2.91-3.491-.707-.863.86-2.804 1.09-4.313.513-2.64-1.01-2.639-1.127.036-3.078 1.53-1.115 4.194-2.028 5.922-2.028 1.727 0 3.896-1.207 4.82-2.681.924-1.475 3.65-2.833 6.06-3.018 5.491-.421 16.835-6.086 17.94-8.959.52-1.351.184-1.758-.9-1.09-.953.587-2.654-.189-3.78-1.725s-2.047-1.98-2.047-.988c0 2.93-2.616 2.057-3.458-1.154-.588-2.243-1.732-2.785-4.733-2.242-2.223.402-3.957.014-3.957-.887 0-.882-1.42-.283-3.157 1.33-3.024 2.81-7.447 4.207-17.343 5.476-2.505.322-6.947.927-9.87 1.346-4.736.678-4.405.346 3.037-3.056 4.594-2.1 9.89-4.422 11.769-5.162 3.788-1.49 4.629-4.448 1.264-4.448-1.183 0-5.44 1.406-9.46 3.124-8.104 3.464-7.951 2.76.589-2.72 3.14-2.016 4.462-3.273 2.938-2.796-1.523.478-3.744-.102-4.935-1.29-2.939-2.93-2.724-3.89.872-3.89 1.67 0 3.037.682 3.037 1.515a1.52 1.52 0 0 0 1.518 1.514c2.306 0 1.825-2.213-1.25-5.749-2.736-3.145-9.831-3.594-14.205-.899-1.02.63-1.299.383-.686-.606.568-.916 6.739-4.357 13.713-7.647 6.975-3.29 13.149-6.735 13.72-7.657 1.63-2.63-5.67-4.62-11.85-3.23-3.033.682-5.516 1.027-5.516.766 0-2.998 2.929-5.526 7.97-6.88 3.376-.906 7.96-2.991 10.186-4.632C65.2 6.153 80.347 4.1 113.617 4.14c22.792.03 32.717.62 37.962 2.261 7.704 2.41 13.29 2.757 11.224.697-.711-.709-5.517-2.031-10.68-2.938-9.55-1.678-13.468-4.734-4.452-3.473 25.697 3.593 36.565 7.296 37.347 12.728.308 2.138-.518 4.395-2.004 5.48-2.341 1.706-2.323 1.96.235 3.414 2.465 1.4 2.23 1.759-2.171 3.31-4.716 1.663-6.453 4.873-3.593 6.637.739.455 4.497.946 8.352 1.092 7.046.265 8.7 2.024 5.192 5.522-1.409 1.405-1.167 2.284 1.082 3.924 2.544 1.856 2.634 2.431.735 4.713s-1.81 2.857.727 4.707c2.711 1.977 2.613 2.108-1.576 2.126-4.385.017-4.347.085 2.085 3.753 3.604 2.054 7.362 3.58 8.352 3.389 1.018-.196 2.007 1.792 2.276 4.575.262 2.707.043 4.922-.487 4.922Zm13.421 3.476c-1.759 1.085-6.083-1.443-4.747-2.775.539-.538 2.145-.329 3.567.465 1.423.794 1.954 1.834 1.18 2.31Z"/></svg>